<svg id="Layer_1" data-name="Layer 1" xmlns="http://www.w3.org/2000/svg" xmlns:xlink="http://www.w3.org/1999/xlink" viewBox="0 0 48.14853 54.8511">
  <defs>
    <style>
      .cls-1 {
        fill: url(#linear-gradient);
      }

      .cls-2 {
        fill: url(#linear-gradient-2);
      }

      .cls-3 {
        fill: url(#linear-gradient-3);
      }

      .cls-4 {
        fill: url(#linear-gradient-4);
      }

      .cls-5 {
        fill: url(#linear-gradient-5);
      }

      .cls-6 {
        fill: url(#linear-gradient-6);
      }

      .cls-7 {
        fill: url(#linear-gradient-7);
      }

      .cls-8 {
        fill: url(#linear-gradient-8);
      }

      .cls-9 {
        fill: url(#linear-gradient-9);
      }

      .cls-10 {
        fill: url(#linear-gradient-10);
      }

      .cls-11 {
        fill: url(#linear-gradient-11);
      }
    </style>
    <linearGradient id="linear-gradient" x1="-212.76113" y1="191.70186" x2="-82.03772" y2="113.06357" gradientUnits="userSpaceOnUse">
      <stop offset="0" stop-color="#fff"/>
      <stop offset="1" stop-color="#27aae1"/>
    </linearGradient>
    <linearGradient id="linear-gradient-2" x1="-210.24264" y1="195.88844" x2="-79.51924" y2="117.25014" xlink:href="#linear-gradient"/>
    <linearGradient id="linear-gradient-3" x1="-204.62219" y1="205.23153" x2="-73.89878" y2="126.59324" xlink:href="#linear-gradient"/>
    <linearGradient id="linear-gradient-4" x1="-214.6846" y1="188.5044" x2="-83.9612" y2="109.86611" xlink:href="#linear-gradient"/>
    <linearGradient id="linear-gradient-5" x1="-218.99081" y1="181.34603" x2="-88.26741" y2="102.70773" xlink:href="#linear-gradient"/>
    <linearGradient id="linear-gradient-6" x1="-215.5871" y1="187.00415" x2="-84.86369" y2="108.36585" xlink:href="#linear-gradient"/>
    <linearGradient id="linear-gradient-7" x1="-225.29939" y1="170.85904" x2="-94.57599" y2="92.22074" xlink:href="#linear-gradient"/>
    <linearGradient id="linear-gradient-8" x1="-221.93807" y1="176.44669" x2="-91.21467" y2="97.80839" xlink:href="#linear-gradient"/>
    <linearGradient id="linear-gradient-9" x1="-213.6412" y1="190.23889" x2="-82.9178" y2="111.60059" xlink:href="#linear-gradient"/>
    <linearGradient id="linear-gradient-10" x1="-219.67423" y1="180.20995" x2="-88.95083" y2="101.57165" xlink:href="#linear-gradient"/>
    <linearGradient id="linear-gradient-11" x1="-211.48677" y1="193.82028" x2="-80.76336" y2="115.18198" xlink:href="#linear-gradient"/>
  </defs>
  <path class="cls-1" d="M-148.81367,138.88476c4.074,1.25784,6.45918,4.04077,6.54652,8.1596.13054,6.15537-.00847,12.3161.08237,18.47286.024,1.6272-.56992,2.00977-2.08146,1.98363-4.58216-.07922-9.16844-.10353-13.74917.00937-1.7595.04336-2.174-.58642-2.1505-2.22868.08544-5.95824-.03372-11.91948.06-17.87747A8.46013,8.46013,0,0,1-153,138.79935,19.3377,19.3377,0,0,0-148.81367,138.88476Z" transform="translate(160.16684 -121.60373)"/>
  <path class="cls-2" d="M-133.24335,151.03683c.00025,3.57918-.03069,7.15871.009,10.73747.03909,3.52451,2.06293,5.75723,5.09491,5.72013,2.998-.03668,4.9902-2.298,5.01533-5.83833.03951-5.56735-.00868-11.13533.03434-16.70263.00584-.75512-.5325-1.96622.973-2.01857,1.45936-.05075,1.13265,1.0841,1.13424,1.9128.01121,5.86577.08949,11.73353-.03713,17.59673a7.1467,7.1467,0,0,1-7.17736,7.2541,7.17541,7.17541,0,0,1-7.21876-7.24405c-.13988-6.85731-.03769-13.7194-.04972-20.57946-.00941-5.36151-1.54657-6.784-6.95621-6.94907-1.38426-.04224-3.98988,1.11045-3.9927-.936-.00316-2.30512,2.66195-1.07012,4.06749-1.10111,6.50185-.14338,9.09148,2.48963,9.10241,8.90177Q-133.23663,146.41369-133.24335,151.03683Z" transform="translate(160.16684 -121.60373)"/>
  <path class="cls-3" d="M-151.14026,169.77655c2.28962-.00019,4.58232.07152,6.86777-.02575,1.48917-.06337,2.2661.31407,2.07146,1.9605a12.38983,12.38983,0,0,0-.00229,2.67545c.15257,1.51564-.3602,2.10026-1.98194,2.06671-4.67678-.09673-9.35737-.07166-14.03537-.01082-1.36474.01775-2.066-.32674-1.92868-1.81963a16.79689,16.79689,0,0,0,.00074-2.97394c-.12124-1.39886.38033-1.95651,1.84182-1.89809C-155.92141,169.84632-153.52944,169.77673-151.14026,169.77655Z" transform="translate(160.16684 -121.60373)"/>
  <path class="cls-4" d="M-125.61941,133.98479a4.26523,4.26523,0,0,1,.187-.87037c.81355-1.83757,1.08268-4.71466,3.51357-4.53939,2.20917.15927,2.77928,2.75484,3.15482,4.84655.02217,1.83325-.59776,3.04644-2.71382,3.01894C-123.36316,136.416-125.42917,136.80442-125.61941,133.98479Z" transform="translate(160.16684 -121.60373)"/>
  <path class="cls-5" d="M-128.65,121.60373a3.31655,3.31655,0,0,1,.75919.67534,1.01018,1.01018,0,0,1-.309,1.31473c-2.34473,2.30759-2.3804,4.43565.525,6.29108a1.06506,1.06506,0,0,1,.42195,1.50419c-.20426.51468-.52814.87766-1.1085.63245a5.63088,5.63088,0,0,1-3.68683-4.64508,5.43542,5.43542,0,0,1,2.68964-5.53305A3.74157,3.74157,0,0,1-128.65,121.60373Z" transform="translate(160.16684 -121.60373)"/>
  <path class="cls-6" d="M-112.01831,126.85961a5.5708,5.5708,0,0,1-3.07133,4.86524c-.6148.35246-1.24551.72931-1.70148-.24282-.27474-.58574-.43661-1.10431.25233-1.52421,3.11949-1.90129,3.09147-4.069.56043-6.46922a.95051.95051,0,0,1-.007-1.54135c.56966-.53731,1.1029-.27617,1.60183.09113A5.71248,5.71248,0,0,1-112.01831,126.85961Z" transform="translate(160.16684 -121.60373)"/>
  <path class="cls-7" d="M-151.02944,124.99965c.69193.00044,1.38557-.0302,2.07534.00832.83311.04652,1.99574-.26855,2.05632,1.03278.051,1.09651-.98259,1.21025-1.7306,1.042-2.069-.46549-.74333,2.17155-2.33727,2.34469-1.961.213-.73541-2.40107-2.40918-2.32636-.88295.03941-2.34067.26857-1.99058-1.30188.28452-1.27635,1.64645-.68375,2.55814-.78743A15.72381,15.72381,0,0,1-151.02944,124.99965Z" transform="translate(160.16684 -121.60373)"/>
  <path class="cls-8" d="M-148.91541,133.70625c-.14968,1.27367-.70356,2.18993-1.987,2.31377a2.01783,2.01783,0,0,1-2.41491-2.03785,2.02332,2.02332,0,0,1,1.90762-2.26884C-149.95527,131.54151-149.2731,132.49631-148.91541,133.70625Z" transform="translate(160.16684 -121.60373)"/>
  <path class="cls-9" d="M-125.61941,133.98479c2.28992,2.90849,5.12056,2.67588,6.85535-.56328.55988.96068.9704,1.99719.12189,2.93663-.7653.84731-5.936,1.15779-6.755.44008A1.89376,1.89376,0,0,1-125.61941,133.98479Z" transform="translate(160.16684 -121.60373)"/>
  <path class="cls-10" d="M-148.81367,138.88476A3.4964,3.4964,0,0,1-153,138.79936,4.77486,4.77486,0,0,1-148.81367,138.88476Z" transform="translate(160.16684 -121.60373)"/>
  <path class="cls-11" d="M-121.00462,140.07232c-.20764.68425-.73828.61535-1.21418.62027-.58318.006-1.01975-.29556-.81546-.87719.1887-.53726.80474-.4609,1.29023-.40748C-121.3348,139.45295-120.99942,139.62688-121.00462,140.07232Z" transform="translate(160.16684 -121.60373)"/>
</svg>
